<svg width="44" height="44" viewBox="0 0 44 44" fill="none" xmlns="http://www.w3.org/2000/svg">
<path d="M22 33.2589L26.5009 19.4065H17.499L21.9999 33.2589H22Z" fill="#E24329"/>
<path d="M22 33.2586L17.499 19.4062H11.1912L22 33.2586Z" fill="#FC6D26"/>
<path d="M11.1911 19.4062L9.82339 23.6159C9.76257 23.8031 9.76257 24.0047 9.82336 24.1918C9.88416 24.379 10.0026 24.5421 10.1618 24.6578L22 33.2587L11.191 19.4063L11.1911 19.4062Z" fill="#FCA326"/>
<path d="M11.1912 19.4064H17.499L14.7883 11.0632C14.6488 10.6338 14.0414 10.6339 13.902 11.0632L11.1912 19.4064Z" fill="#E24329"/>
<path d="M22 33.2586L26.501 19.4062H32.8089L21.9999 33.2586H22Z" fill="#FC6D26"/>
<path d="M32.8089 19.4062L34.1766 23.6159C34.2374 23.8031 34.2374 24.0047 34.1766 24.1919C34.1158 24.379 33.9973 24.5421 33.8381 24.6578L22 33.2587L32.8089 19.4063V19.4062Z" fill="#FCA326"/>
<path d="M32.8089 19.4064H26.501L29.2118 11.0632C29.3513 10.6338 29.9587 10.6339 30.0981 11.0632L32.8089 19.4064Z" fill="#E24329"/>
</svg>
