<svg width="44" height="44" viewBox="0 0 44 44" fill="none" xmlns="http://www.w3.org/2000/svg">
<path d="M26.0769 33.5347C27.8829 27.059 27.233 23.7947 24.067 23.1675C24.5506 25.3664 25.0946 27.6257 22.7824 29.152C21.5734 29.953 20.6138 29.6432 18.4678 27.9959C17.4779 30.0286 17.8104 32.0536 18.2713 34.2223C15.1959 33.6858 12.7704 32.4088 11.6445 29.4392C10.4808 26.734 11.1231 23.5982 13.2389 21.558C13.9794 20.8024 14.7803 20.1148 15.6342 19.4952C19.095 16.8958 19.7675 14.372 17.9388 10.4655C17.8557 10.2388 17.7877 10.0121 17.7424 9.77783C21.5885 10.3597 25.2306 11.9087 28.3287 14.2662C35.0764 19.7823 34.2603 29.7036 26.8099 33.3458C26.553 33.3609 26.3112 33.4213 26.0769 33.5347Z" fill="#EE4854"/>
</svg>
